PathFileType	4	(X/Y/Z)	OpenSim_Sub10_CSBaseline_Magnet.trc
DataRate	CameraRate	NumFrames	NumMarkers	Units	OrigDataRate	OrigDataStartFrame	OrigNumFrames
100	100	20	8	m	100	3417	9111
Frame#	Time	torso_imu_offset_imu	pelvis_imu_offset_imu	tibia_r_imu_offset_imu	femur_r_imu_offset_imu	tibia_l_imu_offset_imu	femur_l_imu_offset_imu	toes_r_imu_offset_imu	toes_l_imu_offset_imu
				X1	Y1	Z1	X2	Y2	Z2	X3	Y3	Z3	X4	Y4	Z4	X5	Y5	Z5	X6	Y6	Z6	X7	Y7	Z7	X8		Y8	Z8	

3417	34.16000000	-0.95928255	-0.04256222	0.09865777	-0.66822403	0.07457654	-0.67291297	-0.51795815	-0.70385049	-0.29098308	-0.59378056	-0.58832355	0.02398918	-0.74659789	0.28077717	0.15394706	-0.71403304	-0.11329524	0.18090388	-0.72590453	-0.46552623	-0.35776354	-0.61459090	-0.19911786	-0.52340778
3418	34.17000000	-0.95428865	-0.04264377	0.09688097	-0.66698533	0.08277561	-0.67024620	-0.50501261	-0.71209133	-0.29351062	-0.59368021	-0.59209124	0.01256911	-0.74645990	0.28805175	0.16069485	-0.71057010	-0.10924202	0.19707044	-0.73237221	-0.46747654	-0.33860386	-0.62421126	-0.20105701	-0.51162513
3419	34.18000000	-0.95285735	-0.04725962	0.09143825	-0.67595612	0.08191814	-0.66076808	-0.48859567	-0.71872782	-0.29687346	-0.59158291	-0.58993858	0.00832162	-0.73813526	0.30058898	0.17301750	-0.71231765	-0.10918625	0.20280823	-0.74114764	-0.46959581	-0.31999566	-0.64392654	-0.20126343	-0.48462972
3420	34.19000000	-0.95721896	-0.05091070	0.07952969	-0.67713265	0.08028838	-0.65700983	-0.47967281	-0.72862795	-0.29545352	-0.59219998	-0.59010399	0.00117495	-0.74032421	0.30483311	0.17963949	-0.70568107	-0.10442203	0.20416230	-0.75054288	-0.47236004	-0.29819007	-0.65297087	-0.19618442	-0.46923377
3421	34.20000000	-0.95887864	-0.04913309	0.08634343	-0.67496978	0.08451049	-0.65645958	-0.46247612	-0.73037032	-0.30574253	-0.59850833	-0.58724975	-0.00572709	-0.72852836	0.31374774	0.19308092	-0.70641694	-0.10037240	0.20065564	-0.75035370	-0.48339352	-0.26699493	-0.67159918	-0.18798045	-0.44615909
3422	34.21000000	-0.95632723	-0.05555669	0.08187049	-0.67325675	0.08401564	-0.64996782	-0.44789980	-0.73515794	-0.29847752	-0.60255833	-0.58174045	-0.01035629	-0.72323552	0.32046190	0.20569691	-0.70626753	-0.09820960	0.21250824	-0.75892625	-0.49342853	-0.23890821	-0.68173599	-0.18638750	-0.42487017
3423	34.22000000	-0.95685212	-0.05506847	0.08137570	-0.67802020	0.08220579	-0.65244531	-0.43066871	-0.74325047	-0.30382015	-0.60734634	-0.58354775	-0.01519061	-0.72283928	0.33167727	0.21326360	-0.70663073	-0.09417876	0.21551302	-0.76484247	-0.49973245	-0.19641639	-0.68927383	-0.18443622	-0.41634518
3424	34.23000000	-0.95843552	-0.05522762	0.07021891	-0.68191394	0.08190966	-0.64979121	-0.41373365	-0.74736208	-0.31276795	-0.61797183	-0.57697589	-0.02182965	-0.70933466	0.33989241	0.21481695	-0.70596102	-0.09955242	0.21424787	-0.76869134	-0.50818497	-0.15739906	-0.70194586	-0.18178738	-0.40482842
3425	34.24000000	-0.95441311	-0.05800102	0.06618456	-0.68406378	0.07992585	-0.64762655	-0.39745658	-0.75334214	-0.31773084	-0.62157831	-0.57330309	-0.02253879	-0.70336866	0.34432127	0.21934027	-0.70133623	-0.10755558	0.22282410	-0.76999913	-0.51677631	-0.11412228	-0.70198034	-0.17582593	-0.39656578
3426	34.25000000	-0.95870050	-0.06383262	0.05971361	-0.68617716	0.08028283	-0.64770987	-0.38392635	-0.75792126	-0.31129988	-0.62656357	-0.56822822	-0.03687722	-0.69930108	0.35380133	0.22573285	-0.70171382	-0.10999233	0.21472187	-0.76563363	-0.52472458	-0.06051494	-0.70866910	-0.17860773	-0.39440817
3427	34.26000000	-0.95613953	-0.06144981	0.05556719	-0.68875798	0.08492947	-0.64483952	-0.35827243	-0.76837296	-0.31815920	-0.63763363	-0.55368879	-0.04373276	-0.69680586	0.36388963	0.23179783	-0.70307132	-0.12139765	0.20944585	-0.76295815	-0.53173848	-0.02057459	-0.70804970	-0.18039644	-0.39021863
3428	34.27000000	-0.95418368	-0.06370366	0.05375195	-0.69241370	0.09045200	-0.63850588	-0.33976135	-0.77191633	-0.31979562	-0.64819420	-0.54640112	-0.04843997	-0.68828742	0.36378793	0.23566881	-0.69863279	-0.12895774	0.21675483	-0.75481743	-0.54593665	0.03690659	-0.70864848	-0.18072931	-0.39020433
3429	34.28000000	-0.95643485	-0.06349494	0.05328602	-0.68863846	0.09081398	-0.64139428	-0.32090060	-0.77390517	-0.32455773	-0.65641746	-0.53678581	-0.05109691	-0.68877569	0.37086941	0.23525152	-0.70107611	-0.12688479	0.22077732	-0.75182898	-0.55198459	0.08826370	-0.71270142	-0.18504155	-0.38833462
3430	34.29000000	-0.95626930	-0.06154795	0.04661141	-0.69274895	0.09963599	-0.64113733	-0.30447833	-0.77572900	-0.33137675	-0.66649157	-0.51638435	-0.05996928	-0.68633808	0.37739164	0.23691580	-0.69810339	-0.12826094	0.22585532	-0.73466212	-0.55981982	0.13555243	-0.71030076	-0.18478747	-0.39007579
3431	34.30000000	-0.95628195	-0.06397449	0.04194415	-0.68628371	0.10318816	-0.63910289	-0.28911700	-0.78109095	-0.33435348	-0.68249697	-0.50902618	-0.07565699	-0.68238900	0.38377105	0.23446638	-0.69238619	-0.11146252	0.23468597	-0.71882543	-0.56434185	0.17544428	-0.71006467	-0.18762032	-0.38588820
3432	34.31000000	-0.95639887	-0.06587353	0.03381746	-0.68717767	0.10567113	-0.63901053	-0.26777715	-0.79504378	-0.32513056	-0.68270915	-0.49542276	-0.07858804	-0.67990980	0.38836641	0.24219387	-0.69028484	-0.09522339	0.24107419	-0.69041388	-0.57394259	0.21890834	-0.70760653	-0.19687955	-0.38711161
3433	34.32000000	-0.95851018	-0.06807145	0.03409093	-0.69144885	0.10938397	-0.63689738	-0.24632309	-0.79206367	-0.33054079	-0.69678250	-0.47466926	-0.09298400	-0.67333703	0.39448206	0.25494438	-0.68188127	-0.08573510	0.24491850	-0.68006785	-0.57611277	0.24926583	-0.70754892	-0.20233167	-0.37679335
3434	34.33000000	-0.95764234	-0.07038462	0.02905593	-0.69079351	0.10710220	-0.63677735	-0.21987470	-0.79268614	-0.33434508	-0.70962189	-0.45866170	-0.09218963	-0.67159777	0.39170196	0.26111493	-0.68363410	-0.06671164	0.24204495	-0.65436380	-0.58871152	0.27690553	-0.70781946	-0.19555851	-0.38614928
3435	34.34000000	-0.95200866	-0.07178810	0.02317023	-0.68943810	0.10980056	-0.63485605	-0.21023734	-0.79629404	-0.33717778	-0.72492381	-0.44177154	-0.08918251	-0.67133325	0.38993628	0.26623603	-0.68783758	-0.06011092	0.24328418	-0.63755458	-0.59542963	0.30858734	-0.70725071	-0.20106335	-0.38356325
3436	34.35000000	-0.95880462	-0.07057995	0.02319079	-0.69559597	0.11645862	-0.63723578	-0.19737225	-0.79191891	-0.34881845	-0.73749804	-0.42072094	-0.09750863	-0.66864356	0.39243235	0.27744330	-0.68582648	-0.04229394	0.25399950	-0.61250209	-0.59353888	0.33690325	-0.70231085	-0.20398263	-0.38830455
